<?xml version="1.1" encoding="UTF-8"?>
<svg version="2.0" viewBox="0 0 256 256" xmlns="http://www.w3.org/2000/svg">
	<g clip-path="url(#clip0_309_2)">
		<path d="M128 256C57.3075 256 0 198.692 0 128C0 57.3075 57.3075 0 128 0C198.692 0 256 57.3075 256 128V240C256 248.837 248.837 256 240 256H128Z" fill="#5E4430"/>
		<g filter="url(#filter0_d_309_2)">
			<path d="M133.972 32.0019C133.972 35.3167 131.298 38.0038 128 38.0038C124.701 38.0038 122.027 35.3167 122.027 32.0019C122.027 28.6871 124.701 26 128 26C131.298 26 133.972 28.6871 133.972 32.0019Z" fill="#FFD090"/>
			<path d="M128 50.0076C131.298 50.0076 133.972 52.6947 133.972 56.0095V68.0133C133.972 71.3281 131.298 74.0152 128 74.0152C124.701 74.0152 122.027 71.3281 122.027 68.0133V56.0095C122.027 52.6947 124.701 50.0076 128 50.0076Z" fill="#FFD090"/>
			<path d="M128 98.0228C124.701 98.0228 122.027 95.3357 122.027 92.0209C122.027 88.7061 124.701 86.019 128 86.019C131.298 86.019 133.972 88.7061 133.972 92.0209C133.972 95.3357 131.298 98.0228 128 98.0228Z" fill="#FFD090"/>
			<path d="M148.649 66.0927C149.367 65.7941 150.136 65.6404 150.912 65.6404C151.689 65.6404 152.457 65.7941 153.175 66.0927C153.892 66.3913 154.544 66.8289 155.093 67.3807C155.642 67.9325 156.078 68.5875 156.375 69.3084C156.672 70.0293 156.825 70.802 156.825 71.5823C156.825 73.1582 156.202 74.6694 155.093 75.7837C153.984 76.8979 152.48 77.5238 150.912 77.5238C149.344 77.5238 147.84 76.8979 146.731 75.7836C145.622 74.6694 144.999 73.1581 144.999 71.5823C144.999 70.802 145.152 70.0294 145.449 69.3084C145.746 68.5875 146.182 67.9325 146.731 67.3807C147.28 66.829 147.932 66.3913 148.649 66.0927Z" fill="#FFD090"/>
			<path d="M92.9749 87.0807C94.0838 85.9665 95.5876 85.3405 97.1557 85.3406C98.7238 85.3405 100.228 85.9665 101.337 87.0807C102.445 88.195 103.068 89.7062 103.068 91.282C103.068 92.0623 102.916 92.835 102.618 93.5559C102.321 94.2768 101.886 94.9319 101.337 95.4836C100.788 96.0354 100.136 96.4731 99.4185 96.7717C98.7011 97.0703 97.9322 97.224 97.1557 97.2239C96.3792 97.224 95.6104 97.0703 94.893 96.7717C94.1756 96.4731 93.5238 96.0354 92.9747 95.4837C92.4257 94.9319 91.9902 94.2769 91.693 93.5559C91.3959 92.835 91.2429 92.0623 91.243 91.282C91.243 89.7062 91.866 88.1949 92.9749 87.0807Z" fill="#FFD090"/>
			<path d="M120.253 112.845C122.268 110.821 124.989 109.665 127.838 109.623C130.799 109.579 133.652 110.741 135.747 112.845L203.771 181.205C210.67 188.141 205.783 199.997 196.024 200H59.9749C50.2166 199.996 45.3308 188.141 52.229 181.205L120.253 112.845ZM129.638 117.117C129.257 117.042 128.87 117.004 128.483 117.004C126.957 117.004 125.431 117.589 124.267 118.759L110.003 133.093C107.674 135.434 107.674 139.228 110.003 141.568C112.332 143.909 116.107 143.909 118.436 141.568L128.616 131.338L189.287 192.308C191.616 194.648 195.391 194.648 197.72 192.308C200.048 189.968 200.048 186.174 197.72 183.833L133.018 118.813C132.067 117.857 130.875 117.292 129.638 117.117ZM103.699 146.973C102.59 145.859 101.086 145.233 99.5185 145.233C97.9504 145.233 96.4465 145.859 95.3377 146.973C94.2288 148.087 93.6059 149.598 93.6058 151.174C93.6058 151.954 93.7587 152.727 94.0558 153.448C94.3529 154.169 94.7885 154.824 95.3375 155.376C95.8866 155.927 96.5384 156.365 97.2557 156.664C97.9731 156.962 98.742 157.116 99.5185 157.116C101.087 157.116 102.59 156.49 103.699 155.376C104.808 154.261 105.431 152.75 105.431 151.174C105.431 149.598 104.808 148.087 103.699 146.973ZM79.994 169.528C78.8851 168.414 77.3812 167.788 75.8131 167.788C74.2451 167.788 72.7413 168.414 71.6326 169.528C70.5238 170.642 69.9009 172.154 69.9009 173.729C69.9008 175.305 70.5237 176.817 71.6325 177.931C72.7412 179.045 74.245 179.671 75.8131 179.671C76.5896 179.671 77.3585 179.518 78.0759 179.219C78.7932 178.92 79.445 178.483 79.9941 177.931C80.5431 177.379 80.9787 176.724 81.2758 176.003C81.5729 175.282 81.7259 174.51 81.7259 173.729C81.7258 172.154 81.1028 170.642 79.994 169.528Z" fill="#FFD090"/>
			<path d="M171.961 119.865C173.07 118.751 174.574 118.125 176.142 118.125C176.918 118.125 177.687 118.278 178.404 118.577C179.122 118.876 179.774 119.313 180.323 119.865C180.872 120.417 181.307 121.072 181.604 121.793C181.901 122.514 182.054 123.286 182.054 124.067C182.054 125.642 181.431 127.154 180.322 128.268C179.214 129.382 177.71 130.008 176.142 130.008C174.574 130.008 173.07 129.382 171.961 128.268C170.852 127.154 170.229 125.642 170.229 124.067C170.229 122.491 170.852 120.979 171.961 119.865Z" fill="#FFD090"/>
			<path d="M73.9102 129.44C74.6276 129.141 75.3964 128.988 76.1729 128.988C77.741 128.988 79.2448 129.614 80.3536 130.728C81.4624 131.842 82.0853 133.354 82.0852 134.929C82.0852 136.505 81.4622 138.016 80.3535 139.131C79.2447 140.245 77.7409 140.871 76.1729 140.871C74.6048 140.871 73.1009 140.245 71.9921 139.131C70.8832 138.017 70.2602 136.505 70.2602 134.929C70.2602 134.149 70.4131 133.376 70.7102 132.656C71.0074 131.935 71.4429 131.28 71.992 130.728C72.541 130.176 73.1928 129.738 73.9102 129.44Z" fill="#FFD090"/>
		</g>
		<path d="M197.746 244H192.236L186.521 235.756C186.439 235.637 186.362 235.514 186.289 235.387C186.216 235.25 186.12 235.086 186.002 234.895H185.934V244H181.518V224.395H185.934V233.158H186.002C186.066 233.04 186.139 232.912 186.221 232.775C186.312 232.639 186.421 232.475 186.549 232.283L192.072 224.395H197.09L190.35 233.637L197.746 244ZM207.576 244.342C204.751 244.342 202.431 243.43 200.617 241.607C198.803 239.775 197.896 237.392 197.896 234.457C197.896 231.358 198.817 228.852 200.658 226.938C202.499 225.023 204.91 224.066 207.891 224.066C210.707 224.066 212.999 224.982 214.768 226.814C216.545 228.646 217.434 231.062 217.434 234.061C217.434 237.141 216.513 239.625 214.672 241.512C212.84 243.398 210.475 244.342 207.576 244.342ZM207.658 240.473C209.199 240.473 210.438 239.93 211.377 238.846C212.316 237.752 212.785 236.239 212.785 234.307C212.785 232.292 212.329 230.725 211.418 229.604C210.507 228.482 209.29 227.922 207.768 227.922C206.2 227.922 204.938 228.501 203.98 229.658C203.023 230.807 202.545 232.329 202.545 234.225C202.545 236.148 203.023 237.67 203.98 238.791C204.938 239.912 206.163 240.473 207.658 240.473ZM236.355 244H231.393L228.48 238.695C228.089 237.975 227.71 237.465 227.346 237.164C226.99 236.863 226.553 236.713 226.033 236.713H224.844V244H220.428V224.395H227.428C229.861 224.395 231.657 224.9 232.814 225.912C233.981 226.924 234.564 228.273 234.564 229.959C234.564 231.189 234.2 232.311 233.471 233.322C232.742 234.325 231.721 235.018 230.408 235.4V235.455C230.91 235.656 231.379 235.993 231.816 236.467C232.254 236.932 232.714 237.583 233.197 238.422L236.355 244ZM224.844 227.758V233.322H226.758C227.77 233.322 228.549 233.058 229.096 232.529C229.643 231.992 229.916 231.281 229.916 230.396C229.916 229.549 229.661 228.897 229.15 228.441C228.64 227.986 227.87 227.758 226.84 227.758H224.844Z" fill="#FFD090"/>
	</g>
	<defs>
		<filter id="filter0_d_309_2" x="33" y="10" width="190" height="206" filterUnits="userSpaceOnUse" color-interpolation-filters="sRGB">
			<feFlood flood-opacity="0" result="BackgroundImageFix"/>
			<feColorMatrix in="SourceAlpha" type="matrix" values="0 0 0 0 0 0 0 0 0 0 0 0 0 0 0 0 0 0 127 0" result="hardAlpha"/>
			<feOffset/>
			<feGaussianBlur stdDeviation="8"/>
			<feComposite in2="hardAlpha" operator="out"/>
			<feColorMatrix type="matrix" values="0 0 0 0 0 0 0 0 0 0 0 0 0 0 0 0 0 0 0.5 0"/>
			<feBlend mode="normal" in2="BackgroundImageFix" result="effect1_dropShadow_309_2"/>
			<feBlend mode="normal" in="SourceGraphic" in2="effect1_dropShadow_309_2" result="shape"/>
		</filter>
		<clipPath id="clip0_309_2">
			<rect width="256" height="256" fill="white"/>
		</clipPath>
	</defs>
</svg>
